# xmcd
#
# Track frame offsets: 
#        150
#        25361
#        43899
#        72390
#        98731
#        128333
#        153664
#        177204
#        205428
#        228429
#
# Disc length: 3452 seconds
#
# Revision: 0
# Processed by: cddbd v1.5.2PL0 Copyright (c) Steve Scherf et al.
# Submitted via: ExactAudioCopyFreeDBPlugin 1.0
#
DISCID=870d7a0a
DTITLE=Quynh Lan - Tinh khuc Nguyen Anh 9
DYEAR=1900
DGENRE=
TTITLE0=Co don
TTITLE1=Tinh yeu den trong gia tu
TTITLE2=Mot loi cuoi cho em
TTITLE3=Cho nguoi toi yeu
TTITLE4=Phuong troi nho
TTITLE5=Ai dua em ve
TTITLE6=Biet khuc
TTITLE7=Mua thu canh nau
TTITLE8=Menh mong tinh buon
TTITLE9=Ky niem
EXTD=
EXTT0=
EXTT1=
EXTT2=
EXTT3=
EXTT4=
EXTT5=
EXTT6=
EXTT7=
EXTT8=
EXTT9=
PLAYORDER=
